<?xml version="1.0" encoding="UTF-8"?>
<svg id="Layer_1" data-name="Layer 1" xmlns="http://www.w3.org/2000/svg" viewBox="0 0 135.75 40">
  <defs>
    <style>
      .cls-1, .cls-2 {
        fill: #010101;
      }

      .cls-2 {
        fill-rule: evenodd;
      }
    </style>
  </defs>
  <path class="cls-2" d="M34.16,5.86C30.38,2.08,25.36,0,20.01,0v1.72c4.88,0,9.48,1.9,12.93,5.35,3.45,3.45,5.36,8.04,5.36,12.92s-1.9,9.47-5.36,12.92c-3.45,3.45-8.05,5.35-12.93,5.35s-9.48-1.9-12.93-5.35c-3.45-3.45-5.36-8.04-5.36-12.92,0-3.47.96-6.79,2.78-9.7.6.31,1.27.49,1.98.49,2.37,0,4.3-1.93,4.3-4.3s-1.93-4.3-4.3-4.3-4.3,1.93-4.3,4.3c0,1.03.37,1.98.97,2.72-2.07,3.22-3.16,6.93-3.16,10.79,0,5.34,2.08,10.36,5.86,14.14,3.78,3.78,8.81,5.86,14.15,5.86s10.37-2.08,14.15-5.86c3.78-3.78,5.86-8.8,5.86-14.14s-2.08-10.36-5.86-14.14h0ZM6.49,3.91c1.42,0,2.58,1.16,2.58,2.58s-1.16,2.58-2.58,2.58-2.58-1.16-2.58-2.58,1.16-2.58,2.58-2.58Z"/>
  <path class="cls-1" d="M20.01,29.57c5.29,0,9.57-4.28,9.57-9.57s-4.29-9.57-9.57-9.57-9.57,4.28-9.57,9.57,4.29,9.57,9.57,9.57Z"/>
  <path class="cls-2" d="M88.57,17.25c-.94,0-1.76-.22-2.45-.67-.69-.45-1.21-1.07-1.58-1.86-.37-.8-.55-1.71-.55-2.73s.18-1.94.55-2.73c.37-.8.9-1.42,1.6-1.86s1.52-.67,2.47-.67c.62,0,1.19.13,1.72.38.54.26.97.59,1.29,1.01V2.5h2.42v14.58h-2.42v-1.28c-.3.43-.73.78-1.29,1.05-.54.26-1.13.38-1.76.38ZM89.06,15.1c.54,0,1.01-.13,1.41-.38.41-.26.73-.62.95-1.09.22-.47.34-1.02.34-1.64,0-.95-.24-1.7-.73-2.27-.49-.57-1.14-.85-1.94-.85-.54,0-1.02.13-1.43.38-.4.26-.71.62-.93,1.09-.22.47-.34,1.02-.34,1.64,0,.95.24,1.7.73,2.27.49.57,1.14.85,1.94.85Z"/>
  <path class="cls-2" d="M98.24,16.5c.77.5,1.68.75,2.73.75,1.24,0,2.28-.32,3.13-.97.86-.65,1.38-1.51,1.56-2.59h-2.38c-.12.49-.38.86-.79,1.11-.4.26-.9.38-1.52.38-.55,0-1.04-.13-1.47-.41-.41-.27-.73-.65-.95-1.13-.15-.34-.25-.72-.3-1.13h7.33c.03-.27.04-.56.04-.87,0-.85-.18-1.65-.53-2.39-.36-.74-.9-1.35-1.62-1.82-.73-.47-1.62-.71-2.67-.71s-1.93.24-2.67.73c-.73.49-1.28,1.13-1.66,1.92-.37.8-.55,1.65-.55,2.57s.2,1.78.59,2.59c.41.81.99,1.47,1.74,1.96ZM98.31,10.8c.05-.26.12-.49.2-.71.2-.5.49-.87.87-1.11.4-.26.86-.38,1.41-.38.71,0,1.28.2,1.7.61.42.41.65.94.69,1.6h-4.87Z"/>
  <path class="cls-1" d="M110.01,6.87h-2.44v10.21h2.44v-4.82c0-1.03.17-1.83.51-2.41.34-.59.89-.89,1.64-.89h1.56v-2.09h-1.17c-.65,0-1.17.14-1.58.43-.41.27-.73.73-.97,1.38v-1.8Z"/>
  <path class="cls-2" d="M131.59,24.37h-2.02v4.88h1.17v-1.72h.69c.18,0,.32.05.4.14.09.09.15.26.18.49l.12,1.09h1.15l-.14-1.32c-.03-.24-.08-.44-.16-.59-.08-.16-.21-.3-.38-.41.2-.08.36-.22.47-.41.12-.2.18-.44.18-.71,0-.45-.15-.8-.44-1.05-.29-.27-.7-.41-1.23-.41ZM131.95,26.36c-.11.09-.26.14-.46.14h-.75v-1.07h.75c.2,0,.35.05.46.14.11.09.16.22.16.38,0,.18-.05.31-.16.41Z"/>
  <path class="cls-2" d="M131.34,31.4c-.86,0-1.62-.19-2.3-.57-.66-.39-1.18-.93-1.56-1.62-.38-.69-.57-1.47-.57-2.35s.19-1.64.57-2.33c.38-.69.9-1.22,1.56-1.6.67-.39,1.44-.59,2.3-.59s1.6.2,2.28.59c.67.38,1.19.91,1.56,1.6.38.69.57,1.47.57,2.33s-.19,1.66-.57,2.35c-.37.69-.89,1.23-1.56,1.62-.67.38-1.43.57-2.28.57ZM131.34,30.33c.65,0,1.22-.15,1.72-.45.51-.3.91-.71,1.19-1.24.28-.53.42-1.12.42-1.78s-.15-1.25-.44-1.76c-.28-.53-.67-.93-1.19-1.22-.5-.3-1.07-.45-1.7-.45s-1.22.15-1.72.45c-.5.3-.9.71-1.19,1.24-.28.51-.42,1.09-.42,1.74s.14,1.26.42,1.78c.29.53.69.94,1.19,1.24.5.3,1.08.45,1.72.45Z"/>
  <path class="cls-1" d="M118.81,33.95v3.39h-2.44v-14.58h2.44v8.12l3.82-3.74h3.09l-4.06,4.01,4.4,6.2h-2.93l-3.12-4.57-1.2,1.18Z"/>
  <path class="cls-1" d="M111.19,27.13h-2.44v10.21h2.44v-4.82c0-1.03.17-1.83.52-2.41.34-.59.89-.89,1.64-.89h1.56v-2.09h-1.17c-.65,0-1.18.14-1.58.43-.41.27-.73.73-.97,1.38v-1.8Z"/>
  <path class="cls-2" d="M98.98,36.81c.79.46,1.69.69,2.69.69s1.88-.23,2.67-.69c.79-.46,1.41-1.09,1.86-1.88.45-.8.67-1.69.67-2.69s-.22-1.9-.67-2.69-1.07-1.42-1.86-1.88c-.79-.46-1.68-.69-2.67-.69s-1.9.23-2.69.69c-.79.46-1.41,1.09-1.86,1.88s-.67,1.69-.67,2.69.22,1.9.67,2.69c.45.8,1.07,1.42,1.86,1.88ZM103.1,34.97c-.41.26-.88.38-1.43.38s-1.02-.13-1.45-.38c-.42-.27-.75-.64-.99-1.11-.22-.47-.34-1.01-.34-1.62s.11-1.15.34-1.62c.24-.47.57-.84.99-1.09.42-.27.9-.41,1.45-.41s1,.14,1.43.41c.42.26.75.62.97,1.09.24.47.36,1.01.36,1.62s-.12,1.15-.36,1.62c-.22.47-.55.84-.97,1.11Z"/>
  <path class="cls-1" d="M83.54,27.13h-2.44l3.19,10.21h2.14l2.02-6.87,2,6.87h2.16l3.17-10.21h-2.42l-1.84,6.83-1.96-6.83h-2.22l-1.98,6.83-1.82-6.83Z"/>
  <path class="cls-1" d="M76.88,36.91c.54.28,1.17.43,1.9.43h1.6v-2.09h-1.33c-.46,0-.82-.14-1.07-.41-.25-.27-.38-.66-.38-1.17v-4.46h2.77v-2.09h-2.77v-3.08h-2.44v3.08h-1.96v2.09h1.96v4.56c0,.74.15,1.38.44,1.92.3.53.73.93,1.27,1.22Z"/>
  <path class="cls-2" d="M65.08,36.75c.77.5,1.68.75,2.73.75,1.24,0,2.28-.32,3.13-.97.86-.65,1.38-1.51,1.56-2.59h-2.38c-.12.49-.38.86-.79,1.11-.4.26-.9.38-1.52.38-.55,0-1.04-.13-1.47-.41-.41-.27-.73-.65-.95-1.13-.15-.34-.25-.72-.3-1.13h7.33c.03-.27.04-.56.04-.87,0-.85-.18-1.65-.53-2.39-.36-.74-.9-1.35-1.62-1.82-.73-.47-1.62-.71-2.67-.71s-1.93.24-2.67.73c-.73.49-1.28,1.13-1.66,1.92-.37.8-.55,1.65-.55,2.57s.2,1.78.59,2.59c.41.81.99,1.47,1.74,1.96ZM65.16,31.06h4.87c-.04-.66-.27-1.2-.69-1.6-.42-.41-.99-.61-1.7-.61-.54,0-1.01.13-1.41.38-.38.24-.67.61-.87,1.11-.09.22-.15.45-.2.71Z"/>
  <path class="cls-1" d="M52.25,23.16h-2.81v14.18h2.59v-9.99l6.02,9.99h2.81v-14.18h-2.59v10.01l-6.02-10.01Z"/>
  <path class="cls-1" d="M72.93,6.88h2.44v1.58c.26-.55.67-.98,1.21-1.28.55-.31,1.19-.47,1.9-.47s1.37.17,1.94.51c.57.34,1,.82,1.31,1.44.3.61.46,1.31.46,2.11v6.32h-2.42v-5.79c0-.7-.2-1.27-.59-1.7-.38-.45-.88-.67-1.5-.67-.44,0-.83.11-1.19.34-.34.22-.61.52-.81.91-.2.39-.3.84-.3,1.34v5.57h-2.44V6.88Z"/>
  <path class="cls-2" d="M66.32,17.25c-1.06,0-1.97-.25-2.73-.75-.75-.5-1.33-1.15-1.74-1.96-.4-.81-.59-1.67-.59-2.59s.18-1.78.55-2.57c.38-.8.94-1.44,1.66-1.92.74-.49,1.63-.73,2.67-.73s1.95.24,2.67.71c.73.47,1.27,1.08,1.62,1.82.36.74.53,1.54.53,2.39,0,.31-.01.6-.04.87h-7.33c.05.42.15.79.3,1.13.22.49.54.86.95,1.13.42.27.91.41,1.47.41.62,0,1.13-.13,1.52-.38.41-.26.67-.63.79-1.11h2.38c-.18,1.08-.71,1.94-1.56,2.59-.84.65-1.89.97-3.13.97ZM63.87,10.1c-.09.22-.15.45-.2.71h4.87c-.04-.66-.27-1.2-.69-1.6-.42-.41-.99-.61-1.7-.61-.54,0-1.01.13-1.41.38-.38.24-.67.61-.87,1.11Z"/>
  <path class="cls-2" d="M49.44,2.91h5.66c.95,0,1.77.16,2.45.49.7.32,1.23.79,1.6,1.4.37.61.55,1.33.55,2.17,0,.89-.23,1.65-.69,2.27-.32.44-.73.79-1.23,1.07.19.12.36.25.52.41.7.66,1.1,1.53,1.19,2.59l.34,3.79h-2.61l-.34-3.48c-.04-.54-.23-.98-.57-1.32-.33-.35-.75-.53-1.27-.53h-2.99v5.33h-2.61V2.91ZM54.98,9.45c.49,0,.89-.09,1.21-.28.33-.2.57-.47.73-.79.16-.34.24-.7.24-1.09,0-.62-.18-1.13-.55-1.52-.36-.41-.9-.61-1.62-.61h-2.93v4.29h2.93Z"/>
</svg>